<svg width="35" height="33" viewBox="0 0 35 33" fill="none" xmlns="http://www.w3.org/2000/svg">
    <path d="M29.819 26.803H7.197c-.373 0-.672-.15-.821-.448a.918.918 0 0 1-.075-.97l1.941-4.928L6.301 2.091H.029V0h7.168c.522 0 .97.373 1.045.896l2.09 19.486c0 .15 0 .299-.074.523l-1.493 3.733h21.054v2.165z" fill="#fff"/>
    <path d="m9.511 21.652-.448-2.016L32.88 14.71V6.272H8.242v-2.09h25.683a1.02 1.02 0 0 1 1.046 1.045V15.53a.971.971 0 0 1-.822.97L9.511 21.653zM30.864 33c-2.24 0-4.106-1.867-4.106-4.107s1.866-4.106 4.106-4.106c2.24 0 4.106 1.867 4.106 4.106 0 2.24-1.866 4.107-4.106 4.107zm0-6.197c-1.12 0-2.09.896-2.09 2.09 0 1.195.895 2.09 2.09 2.09 1.195 0 2.09-.895 2.09-2.09 0-1.194-.97-2.09-2.09-2.09zM6.226 33c-2.24 0-4.106-1.867-4.106-4.107s1.866-4.106 4.106-4.106c2.24 0 4.106 1.867 4.106 4.106 0 2.24-1.866 4.107-4.106 4.107zm0-6.197c-1.12 0-2.09.896-2.09 2.09 0 1.195.896 2.09 2.09 2.09 1.195 0 2.09-.895 2.09-2.09 0-1.194-.97-2.09-2.09-2.09z" fill="#fff"/>
</svg>
