<svg width="34" height="33" viewBox="0 0 34 33" fill="none" xmlns="http://www.w3.org/2000/svg">
    <path d="M27.212 3.3h-6.81v-.55C20.4 1.232 19.132.002 17.568 0h-1.133c-1.564.002-2.832 1.232-2.833 2.75v.55H6.79c-.933 0-1.689.734-1.69 1.64v26.42c.001.906.757 1.64 1.69 1.64h20.421c.933 0 1.689-.734 1.69-1.64V4.94c-.001-.906-.757-1.64-1.69-1.64zm-12.477-.55c0-.911.761-1.65 1.7-1.65h1.133c.94 0 1.7.739 1.7 1.65v.55h-4.533v-.55zm6.697 1.65a1.697 1.697 0 0 1-1.597 1.1h-5.667a1.697 1.697 0 0 1-1.595-1.1h8.86zm6.336 26.96c0 .298-.249.54-.556.54H6.791a.548.548 0 0 1-.556-.54V4.94c0-.298.249-.54.556-.54h4.6c.272 1.28 1.431 2.198 2.777 2.2h5.667c1.346-.002 2.505-.92 2.777-2.2h4.6c.308 0 .556.242.557.54v26.42z" fill="#fff"/>
    <path d="M19.21 9.654a.575.575 0 0 0-1.044.072l-1.12 3.263-.631-2.14a.57.57 0 0 0-.701-.378.565.565 0 0 0-.33.245l-.836 1.353-.381-3.33a.563.563 0 0 0-.626-.487.563.563 0 0 0-.475.374L11.27 13.85l-1.112-2.52a.567.567 0 0 0-.524-.332H7.367v1.1H9.26l1.553 3.517c.09.202.294.334.52.334h.025a.565.565 0 0 0 .514-.376l1.45-4.224.284 2.46c.034.303.314.52.625.487a.568.568 0 0 0 .424-.264l1.028-1.663.775 2.631a.564.564 0 0 0 .532.4.574.574 0 0 0 .55-.377l1.267-3.69.521 1.012a.569.569 0 0 0 .506.303h6.8v-1.1h-6.45l-.974-1.895zM26.634 19.25H7.367v1.1h19.267v-1.1zM26.634 21.45H7.367v1.1h19.267v-1.1zM26.634 23.65H7.367v1.1h19.267v-1.1zM26.634 25.85H7.367v1.1h19.267v-1.1zM26.634 28.05H7.367v1.1h19.267v-1.1z" fill="#fff"/>
</svg>
