<svg width="31" height="31" viewBox="0 0 31 31" fill="none" xmlns="http://www.w3.org/2000/svg">
    <path d="M12.164 11.124a18.041 18.041 0 0 0-7.16 0 .586.586 0 0 0-.466.692c.11.522.635.47.707.456a16.823 16.823 0 0 1 6.678 0 .599.599 0 0 0 .707-.456.587.587 0 0 0-.466-.692zM12.164 13.78a18.041 18.041 0 0 0-7.16 0 .586.586 0 0 0-.466.693c.067.317.383.52.707.455a16.823 16.823 0 0 1 6.678 0c.047.01.597.07.707-.455a.586.586 0 0 0-.466-.692zM12.164 8.468a18.04 18.04 0 0 0-7.16 0 .586.586 0 0 0-.466.692c.11.522.635.47.707.456a16.823 16.823 0 0 1 6.678 0 .599.599 0 0 0 .707-.456.586.586 0 0 0-.466-.692zM12.164 5.812a18.04 18.04 0 0 0-7.16 0 .586.586 0 0 0-.466.692c.067.317.383.52.707.456a16.823 16.823 0 0 1 6.678 0c.047.01.597.068.707-.456a.586.586 0 0 0-.466-.692zM20.415 13.555l5.083-2.145c.503-.212.816-.677.816-1.214 0-.536-.313-1.001-.816-1.214l-5.083-2.145a1.372 1.372 0 0 0-1.277.11 1.311 1.311 0 0 0-.609 1.104v4.29c0 .447.228.86.609 1.105.38.244.858.286 1.277.11zm-.62-1.088a.144.144 0 0 1-.068-.126v-4.29c0-.067.037-.105.069-.125.032-.021.08-.04.145-.013l5.083 2.145a.141.141 0 0 1 .093.138.141.141 0 0 1-.093.138l-5.083 2.145a.15.15 0 0 1-.145-.012z" fill="#fff"/>
    <path d="m29.949 26.584-1.36-6.03a1.654 1.654 0 0 0-1.819-1.302l-3.754.426-.302-1.338c1.89.016 3.778.19 5.654.52.919.162 1.57-.48 1.57-1.094V3.054c0-.53-.42-.98-1.023-1.092a35.445 35.445 0 0 0-13.414.082 35.446 35.446 0 0 0-13.414-.082c-.602.112-1.022.561-1.022 1.092v14.712c0 .59.622 1.26 1.57 1.094a34.217 34.217 0 0 1 12.746.16c.08.016.161.016.24 0a34.632 34.632 0 0 1 4.099-.573l.382 1.696H5.382c-2.381 0-4.317 1.895-4.317 4.225 0 2.33 1.936 4.224 4.316 4.224h16.626l.074.328c.175.779 1.004.732 1.175.679l6.038-1.878a.972.972 0 0 0 .655-1.137zm-1.209.08-5.552 1.727-.13-.576 5.553-1.727.13.575zm-8.264-10.302c-.04-.18.071-.386.24-.438.159-.05.243.069.266.17l.981 4.353c.066.294.349.49.654.456l4.291-.487c.243-.028.454.133.512.391l.932 4.131-5.921 1.842-3.729-2.177a.07.07 0 0 1 .01-.036.645.645 0 0 1 .387-.31.445.445 0 0 1 .343.042l2.062 1.204a.61.61 0 0 0 .657-.029.58.58 0 0 0 .234-.601l-1.919-8.51zM2.422 17.707a.295.295 0 0 1-.16-.015V3.128a.244.244 0 0 1 .049-.014 34.217 34.217 0 0 1 12.591.009v14.612a35.465 35.465 0 0 0-12.48-.028zm13.678.028V3.123a34.22 34.22 0 0 1 12.592-.01.24.24 0 0 1 .048.015v14.564a.293.293 0 0 1-.16.015 35.442 35.442 0 0 0-6.13-.54l-.3-1.326a1.412 1.412 0 0 0-.677-.92 1.406 1.406 0 0 0-1.12-.114 1.548 1.548 0 0 0-1.046 1.808l.153.677a35.782 35.782 0 0 0-3.36.443zM2.262 24.368c0-1.684 1.4-3.053 3.12-3.053h14.984l.557 2.467h-.03l-.839-.49a1.66 1.66 0 0 0-1.264-.167 1.833 1.833 0 0 0-.98.657H9.965a2.092 2.092 0 0 0-1.992-1.42c-.93 0-1.72.597-1.992 1.42H4.3a.592.592 0 0 0-.6.586c0 .323.269.585.6.585h1.656a2.09 2.09 0 0 0 2.017 1.505 2.09 2.09 0 0 0 2.017-1.505h7.571c.082.264.255.497.506.644l3.123 1.823H5.381c-1.72 0-3.12-1.369-3.12-3.052zm6.606.042a.887.887 0 0 1-.895.876.887.887 0 0 1-.896-.876c0-.483.402-.877.896-.877s.895.394.895.877z" fill="#fff"/>
</svg>
